<svg width="25" height="25" viewBox="0 0 25 25" fill="none" xmlns="http://www.w3.org/2000/svg">
<path d="M14.5605 7.64649C11.9872 6.3916 8.96964 7.13379 7.22647 9.24805L9.92178 11.9434C10.2294 12.251 10.2294 12.7441 9.92178 13.0469C9.77042 13.1982 9.57022 13.2764 9.37003 13.2764C9.16983 13.2764 8.96964 13.1982 8.81827 13.0469L6.3671 10.5957L0.112213 23.4229C-0.0293884 23.7158 -0.0391541 24.0723 0.112213 24.3848C0.375885 24.9268 1.03506 25.1514 1.57706 24.8877L8.10049 21.7041L5.69815 19.3018C5.39053 18.999 5.39053 18.501 5.69815 18.1982C6.00577 17.8955 6.49893 17.8955 6.80167 18.1982L9.58487 20.9814L14.5653 18.5498C15.7372 17.9785 16.7382 17.0215 17.3534 15.7617C18.8232 12.749 17.5732 9.11621 14.5605 7.64649ZM19.0575 5.94238C20.0097 3.95508 19.5165 1.60645 17.578 0C15.122 2.03613 15.0146 5.24902 17.1923 7.41699L17.5829 7.80762C19.7509 9.98535 22.9687 9.87793 24.9999 7.42188C23.3935 5.4834 21.0448 4.99023 19.0575 5.94238Z" fill="black"/>
</svg>
